<?xml version="1.0" encoding="UTF-8"?>
<svg id="Layer_1" data-name="Layer 1" xmlns="http://www.w3.org/2000/svg" width="307.7" height="288.46" viewBox="0 0 307.7 288.46">
  <polygon points="288.47 57.69 288.47 76.93 288.47 96.16 288.47 115.39 288.47 134.62 307.7 134.62 307.7 115.39 307.7 96.16 307.7 76.93 307.7 57.69 288.47 57.69"/>
  <polygon points="269.23 153.85 269.23 173.08 288.47 173.08 288.47 153.85 288.47 134.62 269.23 134.62 269.23 153.85"/>
  <polygon points="288.47 96.16 288.47 76.93 288.47 57.69 269.23 57.69 269.23 76.93 269.23 96.16 250 96.16 250 76.93 230.77 76.93 230.77 57.69 211.54 57.69 211.54 38.46 230.77 38.46 250 38.46 250 19.23 230.77 19.23 211.54 19.23 192.31 19.23 192.31 38.46 173.08 38.46 173.08 57.69 153.85 57.69 134.62 57.69 134.62 38.46 115.39 38.46 115.39 19.23 96.16 19.23 76.93 19.23 57.7 19.23 57.7 38.46 38.47 38.46 38.47 57.69 19.23 57.69 19.23 76.93 19.23 96.16 38.47 96.16 38.47 115.39 57.7 115.39 57.7 134.62 76.93 134.62 76.93 153.85 76.93 173.08 96.16 173.08 96.16 192.31 115.39 192.31 115.39 211.54 134.62 211.54 134.62 230.77 153.85 230.77 153.85 250 173.08 250 192.31 250 192.31 230.77 211.54 230.77 211.54 211.54 230.77 211.54 230.77 192.31 250 192.31 250 173.08 269.23 173.08 269.23 153.85 269.23 134.62 288.47 134.62 288.47 115.39 288.47 96.16" style="fill: #cccccb;"/>
  <rect x="269.23" y="38.46" width="19.24" height="19.23"/>
  <rect x="250" y="173.08" width="19.23" height="19.23"/>
  <rect x="250" y="38.46" width="19.23" height="19.23" style="fill: #cccccb;"/>
  <rect x="250" y="19.23" width="19.23" height="19.23"/>
  <rect x="230.77" y="192.31" width="19.23" height="19.23"/>
  <polygon points="250 38.46 230.77 38.46 211.54 38.46 211.54 57.69 230.77 57.69 230.77 76.93 250 76.93 250 96.16 269.23 96.16 269.23 76.93 269.23 57.69 250 57.69 250 38.46" style="fill: #fff;"/>
  <rect x="211.54" y="211.54" width="19.23" height="19.23"/>
  <polygon points="230.77 19.23 250 19.23 250 0 230.77 0 211.54 0 192.31 0 192.31 19.23 211.54 19.23 230.77 19.23"/>
  <rect x="192.31" y="230.77" width="19.23" height="19.23"/>
  <rect x="173.08" y="250" width="19.23" height="19.23"/>
  <rect x="173.08" y="19.23" width="19.23" height="19.23"/>
  <rect x="153.85" y="250" width="19.23" height="19.23" style="fill: #999;"/>
  <polygon points="134.62 269.23 134.62 288.46 153.85 288.46 173.08 288.46 173.08 269.23 153.85 269.23 134.62 269.23"/>
  <rect x="134.62" y="250" width="19.23" height="19.23" style="fill: #666766;"/>
  <rect x="134.62" y="230.77" width="19.23" height="19.23" style="fill: #999;"/>
  <polygon points="153.85 57.69 173.08 57.69 173.08 38.46 153.85 38.46 134.62 38.46 134.62 57.69 153.85 57.69"/>
  <rect x="115.39" y="250" width="19.23" height="19.23"/>
  <rect x="115.39" y="230.77" width="19.23" height="19.23" style="fill: #666766;"/>
  <rect x="115.39" y="211.54" width="19.23" height="19.23" style="fill: #999;"/>
  <rect x="115.39" y="19.23" width="19.23" height="19.23"/>
  <rect x="96.16" y="230.77" width="19.23" height="19.23"/>
  <rect x="96.16" y="211.54" width="19.23" height="19.23" style="fill: #666766;"/>
  <rect x="96.16" y="192.31" width="19.23" height="19.23" style="fill: #999;"/>
  <rect x="76.93" y="211.54" width="19.23" height="19.23"/>
  <rect x="76.93" y="192.31" width="19.23" height="19.23" style="fill: #666766;"/>
  <rect x="76.93" y="173.08" width="19.23" height="19.23" style="fill: #999;"/>
  <polygon points="96.16 19.23 115.39 19.23 115.39 0 96.16 0 76.93 0 57.7 0 57.7 19.23 76.93 19.23 96.16 19.23"/>
  <rect x="57.7" y="192.31" width="19.23" height="19.23"/>
  <rect x="57.7" y="173.08" width="19.23" height="19.23" style="fill: #666766;"/>
  <polygon points="57.7 173.08 76.93 173.08 76.93 153.85 76.93 134.62 57.7 134.62 57.7 153.85 57.7 173.08" style="fill: #999;"/>
  <rect x="38.47" y="173.08" width="19.23" height="19.23"/>
  <polygon points="57.7 153.85 57.7 134.62 38.47 134.62 38.47 153.85 38.47 173.08 57.7 173.08 57.7 153.85" style="fill: #666766;"/>
  <rect x="38.47" y="115.39" width="19.23" height="19.23" style="fill: #999;"/>
  <rect x="38.47" y="19.23" width="19.23" height="19.23"/>
  <polygon points="38.47 134.62 19.23 134.62 19.23 153.85 19.23 173.08 38.47 173.08 38.47 153.85 38.47 134.62"/>
  <rect x="19.23" y="115.39" width="19.24" height="19.23" style="fill: #666766;"/>
  <rect x="19.23" y="96.16" width="19.24" height="19.23" style="fill: #999;"/>
  <rect x="19.23" y="38.46" width="19.24" height="19.23"/>
  <polygon points="19.23 96.16 19.23 76.93 19.23 57.69 0 57.69 0 76.93 0 96.16 0 115.39 0 134.62 19.23 134.62 19.23 115.39 19.23 96.16"/>
</svg>